<svg width="40" height="40" xmlns="http://www.w3.org/2000/svg"><path d="M21.068-.001c4.465.003 5.193.03 7.177.12 2.129.097 3.583.435 4.855.93a9.803 9.803 0 013.542 2.306 9.805 9.805 0 012.307 3.543c.495 1.272.833 2.726.93 4.855.093 2.034.118 2.748.12 7.518v1.456c-.002 4.77-.027 5.484-.12 7.518-.097 2.129-.435 3.583-.93 4.855a9.805 9.805 0 01-2.307 3.542A9.805 9.805 0 0133.1 38.95c-1.272.495-2.726.833-4.855.93-2.034.093-2.748.118-7.518.12H19.27c-4.77-.002-5.484-.027-7.518-.12-2.13-.097-3.583-.435-4.855-.93a9.805 9.805 0 01-3.543-2.307A9.803 9.803 0 011.05 33.1c-.495-1.272-.833-2.726-.93-4.855-.09-1.984-.117-2.712-.12-7.177V18.93c.003-4.464.03-5.192.12-7.176.097-2.13.435-3.583.93-4.855a9.803 9.803 0 012.306-3.543A9.803 9.803 0 016.898 1.05C8.17.554 9.624.216 11.753.119c1.984-.09 2.712-.117 7.176-.12zm.334 3.604h-2.806c-4.071.004-4.77.029-6.679.116-1.95.089-3.009.415-3.714.688-.933.363-1.6.797-2.3 1.497-.7.7-1.133 1.366-1.496 2.3-.273.704-.6 1.763-.688 3.713-.087 1.908-.112 2.608-.116 6.679v2.806c.004 4.071.029 4.77.116 6.679.089 1.95.415 3.009.688 3.713.363.934.797 1.6 1.497 2.3.7.7 1.366 1.133 2.3 1.496.704.274 1.763.6 3.713.689 1.958.09 2.643.113 7.007.116h2.15c4.363-.003 5.049-.027 7.007-.116 1.95-.089 3.009-.415 3.713-.689.934-.363 1.6-.796 2.3-1.496.7-.7 1.133-1.366 1.496-2.3.274-.704.6-1.763.689-3.713.09-1.959.113-2.644.116-7.008v-2.149c-.003-4.363-.027-5.049-.116-7.007-.089-1.95-.415-3.009-.689-3.714-.363-.933-.796-1.6-1.496-2.3-.7-.7-1.366-1.133-2.3-1.496-.704-.273-1.763-.6-3.713-.688-1.908-.087-2.608-.112-6.68-.116zm-1.403 6.125c5.672 0 10.27 4.599 10.27 10.27 0 5.673-4.598 10.271-10.27 10.271S9.729 25.671 9.729 20s4.598-10.27 10.27-10.27zm0 3.604a6.667 6.667 0 100 13.334 6.667 6.667 0 000-13.334zm10.676-6.41a2.4 2.4 0 110 4.8 2.4 2.4 0 010-4.8z" fill="#FFF" fill-rule="evenodd"/></svg>