<svg width="30" height="30" xmlns="http://www.w3.org/2000/svg"><path d="M15 0C6.716 0 0 6.716 0 15c0 8.284 6.716 15 15 15 8.284 0 15-6.716 15-15 0-8.284-6.716-15-15-15zm12.92 14.318h-4.738c-.205-4.48-2.107-9.061-5.291-11.938a12.955 12.955 0 0110.03 11.938zM13.636 3.484v10.834H8.864c.197-4.275 1.881-8.448 4.772-10.834zm0 12.88v10.043c-2.693-2.373-4.384-6.225-4.772-10.043h4.772zm2.046 10.356V16.364h5.454c-.45 3.88-2.461 7.97-5.454 10.356zm0-12.402V3.191c3.218 2.38 5.23 6.818 5.454 11.127h-5.454zm-3.989-11.83c-2.986 2.837-4.69 7.296-4.875 11.83H2.08a12.955 12.955 0 019.613-11.83zM2.148 16.365h4.697c.382 4.172 2.175 8.42 5.066 11.195a12.955 12.955 0 01-9.79-11.195h.027zM17.76 27.66a18.02 18.02 0 005.455-11.297h4.773A13.036 13.036 0 0117.734 27.66h.027z" fill="#FFF" fill-rule="evenodd"/></svg>
